<?xml version="1.0" encoding="UTF-8" standalone="no"?>
<svg xmlns="http://www.w3.org/2000/svg" height="512" width="512" version="1.1" viewBox="0 0 512 512">
<rect height="512" width="512" y="0" x="0" fill="#ffffff"/>
<g fill="#111111">
 <path d="m70.98 276.6q-10.22 0-18.62-3.36t-14.42-9.8-9.38-15.82q-3.22-9.52-3.22-21.7t3.64-21.56q3.78-9.52 10.08-15.96t14.7-9.8 17.92-3.36q6.02 0 10.78 0.84 4.9 0.84 8.4 1.96 3.64 1.12 5.88 2.24t3.08 1.68l-3.92 11.2q-1.26-0.84-3.64-1.82t-5.46-1.96q-2.94-0.98-6.58-1.54-3.5-0.7-7.14-0.7-7.7 0-13.86 2.66t-10.5 7.7-6.72 12.32q-2.24 7.14-2.24 16.1 0 8.68 1.96 15.82 2.1 7.14 6.16 12.32 4.06 5.04 10.08 7.84 6.16 2.8 14.28 2.8 9.38 0 15.54-1.96t9.24-3.5l3.5 11.2q-0.98 0.7-3.5 1.82-2.52 0.98-6.3 1.96t-8.82 1.68-10.92 0.7z"/>
 <path d="m139.8 265.2q4.62 0 8.12-0.14 3.64-0.28 6.02-0.84v-21.7q-1.4-0.7-4.62-1.12-3.08-0.56-7.56-0.56-2.94 0-6.3 0.42-3.22 0.42-6.02 1.82-2.66 1.26-4.48 3.64-1.82 2.24-1.82 6.02 0 7 4.48 9.8 4.48 2.66 12.18 2.66zm-1.12-65.24q7.84 0 13.16 2.1 5.46 1.96 8.68 5.74 3.36 3.64 4.76 8.82 1.4 5.04 1.4 11.2v45.5q-1.68 0.28-4.76 0.84-2.94 0.42-6.72 0.84t-8.26 0.7q-4.34 0.42-8.68 0.42-6.16 0-11.34-1.26t-8.96-3.92q-3.78-2.8-5.88-7.28t-2.1-10.78q0-6.02 2.38-10.36 2.52-4.34 6.72-7t9.8-3.92 11.76-1.26q1.96 0 4.06 0.28 2.1 0.14 3.92 0.56 1.96 0.28 3.36 0.56t1.96 0.42v-3.64q0-3.22-0.7-6.3-0.7-3.22-2.52-5.6-1.82-2.52-5.04-3.92-3.08-1.54-8.12-1.54-6.44 0-11.34 0.98-4.76 0.84-7.14 1.82l-1.54-10.78q2.52-1.12 8.4-2.1 5.88-1.12 12.74-1.12z"/>
 <path d="m210 275.9q-12.04-0.28-17.08-5.18t-5.04-15.26v-87.4l13.02-2.24v87.5q0 3.22 0.56 5.32t1.82 3.36 3.36 1.96q2.1 0.56 5.18 0.98z"/>
 <path d="m306.9 226q0 12.6-3.92 21.98-3.92 9.24-11.06 15.4-7.14 6.02-17.08 9.1-9.94 2.94-21.84 2.94-5.88 0-13.02-0.56-7-0.42-12.74-1.82v-94.08q5.74-1.4 12.74-1.82 7.14-0.56 13.02-0.56 11.9 0 21.84 3.08 9.94 2.94 17.08 9.1 7.14 6.02 11.06 15.4 3.92 9.24 3.92 21.84zm-52.78 37.52q19.32 0 28.84-9.8 9.52-9.94 9.52-27.72t-9.52-27.58q-9.52-9.94-28.84-9.94-5.74 0-8.96 0.14-3.08 0.14-4.34 0.28v74.2q1.26 0.14 4.34 0.28 3.22 0.14 8.96 0.14z"/>
 <path d="m389.2 274.5q-2.38-6.3-4.48-12.32-2.1-6.16-4.34-12.46h-43.96l-8.82 24.78h-14.14q5.6-15.4 10.5-28.42 4.9-13.16 9.52-24.92 4.76-11.76 9.38-22.4 4.62-10.78 9.66-21.28h12.46q5.04 10.5 9.66 21.28 4.62 10.64 9.24 22.4 4.76 11.76 9.66 24.92 4.9 13.02 10.5 28.42zm-12.74-35.98q-4.48-12.18-8.96-23.52-4.34-11.48-9.1-21.98-4.9 10.5-9.38 21.98-4.34 11.34-8.68 23.52z"/>
 <path d="m486.7 177.5q-5.32 15.4-10.22 28.56-4.76 13.02-9.38 24.78t-9.24 22.54q-4.48 10.64-9.24 21.14h-12.74q-4.76-10.5-9.38-21.14-4.48-10.78-9.24-22.54-4.62-11.76-9.52-24.78-4.9-13.16-10.08-28.56h14.98q7.56 22.12 14.84 42.56t14.98 38.36q7.7-17.78 14.98-38.22 7.28-20.58 14.7-42.7z"/>
</g>
</svg>
