<?xml version="1.0" encoding="UTF-8" standalone="no"?>
<!-- Created with Inkscape (http://www.inkscape.org/) -->

<svg
   xmlns:dc="http://purl.org/dc/elements/1.1/"
   xmlns:cc="http://creativecommons.org/ns#"
   xmlns:rdf="http://www.w3.org/1999/02/22-rdf-syntax-ns#"
   xmlns:svg="http://www.w3.org/2000/svg"
   xmlns="http://www.w3.org/2000/svg"
   xmlns:sodipodi="http://sodipodi.sourceforge.net/DTD/sodipodi-0.dtd"
   xmlns:inkscape="http://www.inkscape.org/namespaces/inkscape"
   id="svg3336"
   height="512"
   viewBox="0 0 512.40002 512"
   width="512.4"
   version="1.1"
   inkscape:version="0.91 r13725"
   sodipodi:docname="online-accounts-caldav.svg"
   inkscape:export-filename="/home/mardy/git/ubports/sync-monitor/accounts/plugin/online-accounts-caldav.png"
   inkscape:export-xdpi="22.48"
   inkscape:export-ydpi="22.48">
  <defs
     id="defs10" />
  <sodipodi:namedview
     pagecolor="#ffffff"
     bordercolor="#666666"
     borderopacity="1"
     objecttolerance="10"
     gridtolerance="10"
     guidetolerance="10"
     inkscape:pageopacity="1"
     inkscape:pageshadow="2"
     inkscape:window-width="1871"
     inkscape:window-height="1056"
     id="namedview8"
     showgrid="true"
     inkscape:zoom="1.3037281"
     inkscape:cx="20.982658"
     inkscape:cy="257.10929"
     inkscape:window-x="49"
     inkscape:window-y="24"
     inkscape:window-maximized="1"
     inkscape:current-layer="svg3336">
    <inkscape:grid
       type="xygrid"
       id="grid4138"
       empspacing="8" />
  </sodipodi:namedview>
  <metadata
     id="metadata3341">
    <rdf:RDF>
      <cc:Work
         rdf:about="">
        <dc:format>image/svg+xml</dc:format>
        <dc:type
           rdf:resource="http://purl.org/dc/dcmitype/StillImage" />
        <dc:title />
      </cc:Work>
    </rdf:RDF>
  </metadata>
  <g
     id="layer4">
    <path
       id="path4419"
       style="color:#000000;text-indent:0;text-decoration-line:none;text-transform:none;fill:#fff"
       d="m240.06 163.61c-25.439 0-45.991 20.552-45.991 45.991 0 10.486 3.4925 20.136 9.3793 27.864 12.771-14.781 31.62-24.164 52.665-24.164 10.296 0 20.057 2.2921 28.854 6.3118 0.71228-3.2212 1.0829-6.573 1.0829-10.011 0-25.439-20.552-45.991-45.991-45.991zm-60.06 21.283c-13.248 0-23.895 10.74-23.895 23.988 0 4.2892 1.1037 8.3391 3.0631 11.81 7.9942-4.5096 17.238-7.1207 27.055-7.1207 0.94741 0 1.8579 0.0367 2.7935 0.0885-0.10593-1.343-0.17674-2.6877-0.17674-4.0576 0-7.3787 1.5995-14.397 4.4156-20.739-3.7916-2.5426-8.334-3.9692-13.256-3.9692zm113.44 16.5c-0.97869 0-1.9227 0.12113-2.8863 0.18127 0.41681 2.628 0.72047 5.2827 0.72047 8.0268 0 4.2706-0.54389 8.3912-1.5338 12.354 11.606 6.4229 21.244 16.036 27.594 27.687 6.5867-3.4291 13.935-5.6124 21.733-6.135-2.0098-23.57-21.535-42.114-45.628-42.114zm-37.332 17.137c-35.596 0-64.387 28.788-64.387 64.387 0 35.595 28.789 64.387 64.387 64.387s64.387-28.792 64.387-64.387c0-35.599-28.791-64.387-64.387-64.387zm-69.89 0.26962c-27.616 0-49.96 22.344-49.96 49.96 0 16.257 7.7456 30.647 19.749 39.767 5.0603-9.7599 15.227-16.412 26.967-16.412 1.4188 0 2.7785 0.16927 4.146 0.35803-0.42929-3.1232-0.63208-6.3157-0.63208-9.5562 0-15.493 5.0444-29.822 13.618-41.394-5.1322-6.422-8.8039-14.136-10.369-22.542-1.1602-0.0803-2.3375-0.18128-3.5184-0.18128zm156.55 29.76c-8.3854 0-16.239 2.1376-23.174 5.7682 3.938 8.723 6.1306 18.404 6.1306 28.589 0 19.07-7.669 36.385-20.111 48.965 9.1405 10.148 22.404 16.504 37.155 16.504 27.616 0 49.96-22.344 49.96-49.96s-22.344-49.867-49.96-49.867zm-211.38 6.5814c-25.439 0-46.083 20.463-46.083 45.902s20.644 46.079 46.083 46.079c9.6826 0 18.651-3.0159 26.061-8.1152-3.0617-4.7575-4.8709-10.447-4.8709-16.504 0-3.1438 0.46374-6.1633 1.3526-9.0169-13.871-10.024-22.905-26.336-22.905-44.726 0-4.6727 0.61733-9.1941 1.715-13.53-0.4556-0.0136-0.89364-0.0885-1.3525-0.0885zm270.44 39.498c-1.3571 0-2.6717 0.15637-3.9692 0.36243 0.0715 1.1471 0.0927 2.2605 0.0927 3.4256 0 14.668-5.7896 27.982-15.152 37.875 4.6059 5.3562 11.372 8.7473 19.028 8.7473 13.946 0 25.252-11.213 25.252-25.159s-11.306-25.252-25.252-25.252zm-218.86 2.7051c-13.945 0-25.163 11.214-25.163 25.159s11.218 25.252 25.163 25.252c10.689 0 19.759-6.6717 23.444-16.054-8.9901-9.1564-15.453-20.834-18.308-33.813-1.6706-0.34548-3.3622-0.54368-5.1361-0.54368z" />
  </g>
  <flowRoot
     xml:space="preserve"
     id="flowRoot4140"
     style="font-style:normal;font-weight:normal;font-size:140px;line-height:125%;font-family:Ubuntu;letter-spacing:0px;word-spacing:0px;fill:#000000;fill-opacity:1;stroke:none;stroke-width:1px;stroke-linecap:butt;stroke-linejoin:miter;stroke-opacity:1;text-anchor:middle;text-align:center;-inkscape-font-specification:Ubuntu;font-stretch:normal;font-variant:normal;"><flowRegion
       id="flowRegion4142"><rect
         id="rect4144"
         width="512"
         height="208"
         x="0"
         y="144"
         style="font-style:normal;font-variant:normal;font-weight:normal;font-stretch:normal;font-size:140px;font-family:Ubuntu;-inkscape-font-specification:Ubuntu;text-align:center;text-anchor:middle" /></flowRegion><flowPara
       id="flowPara4146">CalDAV</flowPara></flowRoot></svg>
